<svg version="1.1" id="Ebene_1" xmlns="http://www.w3.org/2000/svg" xmlns:xlink="http://www.w3.org/1999/xlink" x="0px" y="0px" viewBox="0 0 22.4 22.413" style="enable-background:new 0 0 22.4 22.413;" xml:space="preserve">
	<style type="text/css">
		.st0{fill:#E30613;}
	</style>
	<g>
		<path class="st0" d="M7.346,9.664c0-0.333-0.235-0.553-0.707-0.553c-0.228,0-0.357,0.008-0.447,0.032v1.114h0.285 C7.053,10.257,7.346,10.022,7.346,9.664z" />
		<path class="st0" d="M6.525,11.264H6.192v1.343c0.105,0.014,0.219,0.014,0.39,0.014c0.471,0,0.878-0.202,0.878-0.689 C7.46,11.46,7.045,11.264,6.525,11.264z" />
		<path class="st0" d="M11.192,0.011L-0.003,11.206L11.206,22.4L22.4,11.206L11.192,0.011z M8.37,13.158 c-0.398,0.318-1.065,0.504-2.21,0.504c-0.61,0-1.081-0.041-1.366-0.081v-5.38c0.333-0.057,1.008-0.114,1.65-0.114 c0.732,0,1.212,0.065,1.633,0.292C8.484,8.598,8.76,8.981,8.76,9.485c0,0.462-0.252,0.918-0.869,1.163v0.016 c0.658,0.186,1.056,0.681,1.056,1.323C8.947,12.493,8.711,12.883,8.37,13.158z M14.097,11.199c0,1.643-0.788,2.489-2.259,2.489 c-1.454,0-2.178-0.83-2.178-2.52v-3.04h1.414v3.178c0,0.82,0.277,1.244,0.805,1.244c0.527,0,0.804-0.383,0.804-1.244V8.128h1.414 V11.199z M16.405,13.688c-0.627,0-1.228-0.164-1.521-0.318l0.261-1.179c0.317,0.164,0.828,0.326,1.332,0.326 c0.504,0,0.747-0.186,0.747-0.472c0-0.283-0.243-0.439-0.836-0.666c-0.919-0.357-1.455-0.879-1.455-1.625 c0-0.96,0.772-1.708,2.129-1.708c0.61,0,1.057,0.124,1.382,0.268L18.16,9.46c-0.22-0.105-0.602-0.25-1.106-0.25 c-0.446,0-0.69,0.178-0.69,0.421c0,0.286,0.26,0.407,0.942,0.674c0.943,0.375,1.358,0.912,1.358,1.635 C18.664,12.9,17.923,13.688,16.405,13.688z" />
	</g>
</svg>
