<?xml version="1.0" encoding="utf-8"?>
<!-- Generator: Adobe Illustrator 22.0.0, SVG Export Plug-In . SVG Version: 6.00 Build 0)  -->
<svg version="1.1" id="Ebene_1" xmlns="http://www.w3.org/2000/svg" xmlns:xlink="http://www.w3.org/1999/xlink" x="0px" y="0px"
	 viewBox="0 0 21.1 21.1" style="enable-background:new 0 0 21.1 21.1;" xml:space="preserve">
<style type="text/css">
	.st0{fill:#13A538;}
</style>
<path class="st0" d="M10.5,1.7c-4.9,0-8.9,4-8.9,8.9s4,8.9,8.9,8.9s8.9-4,8.9-8.9S15.4,1.7,10.5,1.7z M15.8,15.2
	c-0.9,1.5-3,2.6-5.2,2.5c-2.1,0-3.7-0.8-4.4-1.2c-0.7-0.4-1.2-0.8-1.2-0.8v-2.7c0,0,1.8,2.1,3.9,2.6c2.2,0.6,3.3,0,3.9-0.5
	c0.6-0.6,0.4-1.3,0.1-1.8c-0.3-0.5-1.2-0.9-3.4-1.4c-2.2-0.5-3.7-1.4-4.2-2.3c-0.5-1-0.5-1.8-0.4-2.8C5,5.9,6.1,4.3,8,3.7
	c1.8-0.6,3.3-0.5,4.9,0.1c1.5,0.5,2.7,1.4,2.7,1.4v2.2c0,0-1.8-1.7-3.8-2.2C10.4,4.8,8.4,4.7,8,6.3c-0.4,1.4,1.6,2,2.2,2.2
	c0.6,0.1,2.4,0.6,3.2,0.8c1,0.3,2.2,0.9,2.7,2C16.6,12.4,16.7,13.7,15.8,15.2z"/>
</svg>
